PathFileType	4	(X/Y/Z)	8_coords_data.trc
DataRate	CameraRate	NumFrames	NumMarkers	Units	OrigDataRate	OrigDataStartFrame	OrigNumFrames
30.0	30.0	9	21	m	30.0	23	55
Frame#	Time	THUMB_TIP	THUMB_IP	THUMB_MCP	THUMB_CMC	INDEX_TIP	INDEX_DIP	INDEX_PIP	INDEX_MCP	MIDDLE_TIP	MIDDLE_DIP	MIDDLE_PIP	MIDDLE_MCP	RING_TIP	RING_DIP	RING_PIP	RING_MCP	PINKY_TIP	PINKY_DIP	PINKY_PIP	PINKY_MCP	WRIST
X1	Y1	Z1	X2	Y2	Z2	X3	Y3	Z3	X4	Y4	Z4	X5	Y5	Z5	X6	Y6	Z6	X7	Y7	Z7	X8	Y8	Z8	X9	Y9	Z9	X10	Y10	Z10	X11	Y11	Z11	X12	Y12	Z12	X13	Y13	Z13	X14	Y14	Z14	X15	Y15	Z15	X16	Y16	Z16	X17	Y17	Z17	X18	Y18	Z18	X19	Y19	Z19	X20	Y20	Z20	X21	Y21	Z21
22	0.7333333333333333	0.004489890098571777	-0.029032899856567384	0.9902630004882812	-0.0026122701168060304	-0.03828559875488281	1.01347998046875	-0.011611900329589843	-0.033339698791503905	1.037699951171875	-0.020734699249267578	-0.008881360054016114	1.0543699951171874	0.007249559879302978	-0.025245000839233398	0.9511599731445313	-0.012391200065612793	-0.027940399169921876	0.9567520141601562	-0.031378700256347654	-0.02993899917602539	0.967468017578125	-0.039606700897216796	-0.026844200134277345	1.0044299926757811	0.007802299976348877	-0.005157879829406738	0.9365679931640625	-0.012260600090026856	-0.005935400009155273	0.9466710205078125	-0.0341416015625	-0.006598919868469238	0.9620040283203125	-0.04412570190429688	-0.005811659812927246	1.00072998046875	0.00816277027130127	0.014878199577331544	0.9444910278320312	-0.011191200256347657	0.01595069980621338	0.9543759765625	-0.03214310073852539	0.015837699890136718	0.96889599609375	-0.041277198791503905	0.013093000411987304	1.0030399780273438	0.001571580052375793	0.03671689987182617	0.9637449951171875	-0.014716400146484374	0.03647050094604492	0.973281005859375	-0.028033899307250976	0.03482360076904297	0.9844749755859376	-0.03529100036621094	0.030107000350952148	1.0089400024414064	-0.044847400665283206	0.0149173002243042	1.0733599853515625
23	0.7666666666666667	0.004378129959106445	-0.029042299270629884	0.990198974609375	-0.002711800098419189	-0.03833860015869141	1.0134500122070313	-0.011756600379943848	-0.03326330184936523	1.0377099609375	-0.020746400833129883	-0.008883310317993163	1.0543299560546875	0.00733735990524292	-0.02528420066833496	0.9512630004882813	-0.012300100326538086	-0.027971399307250976	0.9567739868164062	-0.031333599090576175	-0.030000299453735352	0.9674149780273438	-0.03970009994506836	-0.026909000396728517	1.0043800048828124	0.007606929779052735	-0.0052505102157592775	0.9364920043945313	-0.01243560028076172	-0.0060002198219299314	0.9466430053710938	-0.03431100082397461	-0.0066683897972106936	0.9619149780273437	-0.044251598358154294	-0.005858819961547852	1.0007100219726563	0.007978209972381592	0.014805299758911133	0.9444539794921875	-0.011426300048828124	0.015888999938964844	0.9541900024414063	-0.0322765007019043	0.015763999938964844	0.968676025390625	-0.04139139938354492	0.013034700393676758	1.003030029296875	0.001410470008850097	0.03666770172119141	0.9636849975585937	-0.014861800193786622	0.036449501037597656	0.9731300048828125	-0.028179100036621094	0.03479650115966797	0.9843489990234375	-0.03536240005493164	0.030056699752807618	1.0089199829101563	-0.04486800003051758	0.0148927001953125	1.073260009765625
24	0.8	0.004370230197906494	-0.029065299987792968	0.990333984375	-0.002716049909591675	-0.03837429809570313	1.0133400268554686	-0.011809200286865234	-0.03334870147705078	1.03756005859375	-0.020773300170898436	-0.008910770416259766	1.05422998046875	0.007619100093841553	-0.02531719970703125	0.9514829711914062	-0.012100099563598633	-0.02800900077819824	0.9568200073242188	-0.031173200607299806	-0.030043500900268555	0.967427001953125	-0.03966669845581055	-0.026949399948120116	1.0043300170898437	0.00768763017654419	-0.005288119792938232	0.936489013671875	-0.01237090015411377	-0.006062590122222901	0.9466170043945312	-0.03428269958496094	-0.006733630180358887	0.9618510131835938	-0.044237098693847655	-0.005922369956970215	1.0006500244140626	0.008090279579162597	0.014743000030517579	0.9444609985351563	-0.011381099700927735	0.015837200164794923	0.954156005859375	-0.03223469924926758	0.015720499992370605	0.968594970703125	-0.04143830108642578	0.013001799583435059	1.002969970703125	0.001419149994850158	0.03656980133056641	0.9636090087890625	-0.014882100105285645	0.03641419982910156	0.9730670166015625	-0.028188499450683593	0.03475659942626953	0.9842880249023438	-0.03540169906616211	0.030012399673461913	1.0088400268554687	-0.04486439895629883	0.014859199523925781	1.0731199951171875
25	0.8333333333333334	0.004428530216217041	-0.029108800888061524	0.9904559936523437	-0.0026639800071716307	-0.0382130012512207	1.0134299926757813	-0.011666999816894532	-0.03332059860229492	1.0375400390625	-0.020729999542236328	-0.008914480209350586	1.0541500244140625	0.007922589778900146	-0.025283899307250977	0.9515079956054687	-0.011834199905395509	-0.027979799270629883	0.9568410034179687	-0.03097260093688965	-0.030017099380493163	0.9673519897460937	-0.039540298461914064	-0.026962200164794923	1.00422998046875	0.007828529834747314	-0.005257619857788086	0.9363319702148437	-0.012251700401306152	-0.006048759937286377	0.9465330200195312	-0.03416640090942383	-0.006707469940185547	0.9617540283203125	-0.04413209915161133	-0.005919260025024414	1.0005900268554688	0.008176300048828125	0.01481719970703125	0.9443309936523437	-0.011231800079345704	0.01587880039215088	0.954052001953125	-0.032111400604248046	0.01574619960784912	0.9684739990234374	-0.04131999969482422	0.01297920036315918	1.0029500122070312	0.0014812300205230711	0.03666659927368164	0.9634760131835938	-0.014845199584960937	0.036480499267578126	0.972968017578125	-0.028146299362182617	0.03478839874267578	0.9842039794921875	-0.03532740020751953	0.03001799964904785	1.0087899780273437	-0.04487680053710937	0.014876600265502929	1.0731400146484376
26	0.8666666666666667	0.0044782299995422365	-0.02911800003051758	0.9899929809570313	-0.002598119974136352	-0.038398700714111327	1.0131400146484375	-0.011636300086975098	-0.03338970184326172	1.0373399658203124	-0.02067970085144043	-0.00896597957611084	1.0539300537109375	0.007628220081329346	-0.025388700485229492	0.9510869750976563	-0.012051899909973145	-0.028057899475097656	0.9565590209960938	-0.031141000747680662	-0.030073200225830078	0.967166015625	-0.039561100006103515	-0.02699640083312988	1.0040599975585938	0.007790390014648437	-0.005395820140838623	0.9361119995117188	-0.01223799991607666	-0.00613405990600586	0.9463930053710937	-0.03413479995727539	-0.006782649993896484	0.9615989990234375	-0.04404729843139649	-0.005964670181274414	1.0002899780273438	0.008188690185546875	0.014695300102233886	0.9441729736328125	-0.011237899780273437	0.015774399757385253	0.9539739990234375	-0.03208810043334961	0.015662699699401855	0.9683319702148437	-0.0412599983215332	0.01294629955291748	1.002760009765625	0.001531190037727356	0.036567600250244144	0.9633330078125	-0.014766500473022462	0.03641279983520508	0.9728200073242188	-0.028085500717163085	0.03474610137939453	0.9840239868164062	-0.0352666015625	0.029979700088500975	1.0085700073242188	-0.04470299911499023	0.014846699714660645	1.07297998046875
27	0.9	0.004800049781799316	-0.029212099075317383	0.9899149780273437	-0.002428509950637817	-0.038538398742675783	1.0130499877929688	-0.01147920036315918	-0.033508201599121094	1.0372900390625	-0.02050429916381836	-0.009052510261535645	1.0539200439453125	0.00797164011001587	-0.02550090026855469	0.9510809936523438	-0.011759499549865722	-0.028178199768066407	0.956469970703125	-0.030851999282836915	-0.030194900512695313	0.9670139770507813	-0.03932120132446289	-0.027095800399780275	1.00402001953125	0.008146439552307129	-0.005503560066223144	0.9360900268554687	-0.011904000282287597	-0.006233580112457275	0.9462760009765625	-0.03386029815673828	-0.006892020225524902	0.9614829711914062	-0.043917999267578126	-0.006091279983520508	1.000280029296875	0.008434229850769043	0.014615699768066407	0.944094970703125	-0.010972700119018554	0.015678799629211426	0.953823974609375	-0.031844999313354494	0.015566900253295898	0.9681699829101562	-0.04113050079345703	0.012828800201416015	1.0025800170898438	0.0016826800107955931	0.0365609016418457	0.9632319946289063	-0.01463249969482422	0.036322898864746093	0.9726489868164062	-0.027939300537109375	0.03465060043334961	0.9838800048828125	-0.03516939926147461	0.029879999160766602	1.0084299926757812	-0.044611499786376956	0.014689599990844727	1.0728800048828124
28	0.9333333333333333	0.00500471019744873	-0.029208200454711914	0.9899580078125	-0.002204180002212524	-0.03853799819946289	1.013010009765625	-0.011242199897766113	-0.03356850051879883	1.0371600341796876	-0.020343000411987305	-0.009112600326538087	1.053800048828125	0.008299750328063965	-0.025501399993896483	0.9510809936523438	-0.011394900321960449	-0.028196599960327147	0.9564010009765626	-0.030518699645996093	-0.030218799591064452	0.966947998046875	-0.03911529922485352	-0.027130699157714842	1.0039099731445313	0.008355050086975098	-0.005503339767456055	0.936030029296875	-0.011680000305175782	-0.0062677798271179195	0.946177978515625	-0.03361489868164062	-0.006926129817962647	0.961375	-0.04367070007324219	-0.006126490116119385	1.0001599731445312	0.008648320198059082	0.014629899978637695	0.9439840087890625	-0.010767499923706054	0.015679100036621093	0.953697998046875	-0.03164520072937012	0.015531999588012695	0.9680709838867188	-0.04088840103149414	0.012775500297546387	1.0024500122070312	0.001913769960403442	0.03644649887084961	0.963125	-0.014416299819946288	0.036267898559570313	0.9725549926757813	-0.027740100860595703	0.03457759857177734	0.9837739868164063	-0.03496839904785156	0.02982379913330078	1.0083400268554688	-0.044400398254394534	0.014644599914550782	1.0725999755859374
29	0.9666666666666667	0.005072629928588867	-0.029281299591064455	0.9899420166015624	-0.002118530035018921	-0.03862540054321289	1.0129400024414061	-0.011180800437927246	-0.03354990005493164	1.0371099853515624	-0.020253400802612304	-0.009150750160217285	1.05368994140625	0.008254449844360351	-0.02556220054626465	0.9508660278320312	-0.011414799690246582	-0.028224199295043946	0.9563189697265625	-0.030528200149536132	-0.030253299713134764	0.9668839721679687	-0.039119499206542965	-0.02716900062561035	1.0039099731445313	0.008386210441589355	-0.005524400234222412	0.93589697265625	-0.011661199569702149	-0.006277999877929687	0.9461079711914062	-0.03357400131225586	-0.006952970027923584	0.9613300170898438	-0.04365719985961914	-0.006165599822998047	1.0001099853515625	0.008477620124816895	0.014672800064086914	0.943718994140625	-0.010863100051879883	0.015690799713134765	0.9536179809570312	-0.0316746997833252	0.015534199714660645	0.9679979858398438	-0.04090250015258789	0.012752699851989745	1.0024400024414062	0.001878499984741211	0.036500598907470705	0.9630269775390625	-0.014423399925231934	0.03624789810180664	0.9724180297851562	-0.02770170021057129	0.03456259918212891	0.9836209716796875	-0.03493740081787109	0.029811000823974608	1.0082999877929688	-0.044339000701904295	0.014654500007629395	1.07252001953125
30	1.0	0.005080589771270752	-0.02975720024108887	0.9902839965820313	-0.002127399921417236	-0.03896039962768555	1.0130599975585937	-0.011285099983215332	-0.03378120040893555	1.0371300048828125	-0.020269800186157226	-0.009300640106201172	1.05368994140625	0.008341119766235352	-0.02574290084838867	0.950530029296875	-0.011254899978637696	-0.028432600021362303	0.9561279907226562	-0.03024519920349121	-0.03042519950866699	0.9668519897460938	-0.03886209869384766	-0.027184099197387696	1.0036799926757813	0.008670100212097168	-0.005596370220184326	0.9356329956054688	-0.011368000030517578	-0.006327770233154297	0.9460089721679688	-0.033255401611328124	-0.006992380142211914	0.9612880249023438	-0.043389801025390626	-0.006195950031280518	0.9998690185546875	0.008423250198364257	0.014824399948120117	0.943469970703125	-0.010931900024414062	0.01580679988861084	0.9533759765625	-0.031682600021362306	0.01559749984741211	0.9679609985351563	-0.040792598724365234	0.012747699737548829	1.0023200073242187	0.002059340000152588	0.03622200012207031	0.9629240112304688	-0.0142431001663208	0.036003200531005856	0.9723350219726562	-0.02755340003967285	0.03437260055541992	0.9835989990234375	-0.03483420181274414	0.0297903995513916	1.0082100219726562	-0.044337501525878904	0.014563300132751466	1.072489990234375
